<svg width="49" height="49" viewBox="0 0 49 49" fill="none" xmlns="http://www.w3.org/2000/svg">
<circle cx="24.5" cy="24.9551" r="23" stroke="#08C056" stroke-opacity="0.24" stroke-width="2"/>
<path d="M29 15.9551H20C17.5147 15.9551 15.5 17.9698 15.5 20.4551V29.4551C15.5 31.9404 17.5147 33.9551 20 33.9551H29C31.4853 33.9551 33.5 31.9404 33.5 29.4551V20.4551C33.5 17.9698 31.4853 15.9551 29 15.9551Z" stroke="#08C056" stroke-width="2" stroke-linecap="round" stroke-linejoin="round"/>
<path d="M28.1 24.3874C28.2111 25.1364 28.0832 25.9014 27.7344 26.5735C27.3857 27.2456 26.8339 27.7906 26.1575 28.1311C25.4811 28.4715 24.7146 28.59 23.967 28.4697C23.2194 28.3494 22.5288 27.9964 21.9934 27.461C21.458 26.9256 21.105 26.235 20.9847 25.4874C20.8644 24.7398 20.9829 23.9733 21.3233 23.2969C21.6638 22.6205 22.2088 22.0687 22.8809 21.72C23.553 21.3712 24.318 21.2433 25.067 21.3544C25.8311 21.4677 26.5384 21.8237 27.0846 22.3698C27.6307 22.916 27.9867 23.6233 28.1 24.3874Z" stroke="#08C056" stroke-width="2" stroke-linecap="round" stroke-linejoin="round"/>
<path d="M29.4502 20.0054H29.4584" stroke="#08C056" stroke-width="2" stroke-linecap="round" stroke-linejoin="round"/>
</svg>
