<svg width="155" height="32" viewBox="0 0 155 32" fill="none" xmlns="http://www.w3.org/2000/svg">
<path d="M3.36 25L9.912 9.952L11.184 11.968H2.664L4.608 9.784V14.56H0.552V8.2H14.472V11.176L8.544 25H3.36ZM152.236 25.216C151.468 25.216 150.82 24.96 150.292 24.448C149.764 23.936 149.5 23.288 149.5 22.504C149.5 21.688 149.764 21.04 150.292 20.56C150.82 20.064 151.468 19.816 152.236 19.816C153.004 19.816 153.652 20.064 154.18 20.56C154.708 21.04 154.972 21.688 154.972 22.504C154.972 23.288 154.708 23.936 154.18 24.448C153.652 24.96 153.004 25.216 152.236 25.216Z" fill="#08C056"/>
<path d="M22.0808 25.216C20.6408 25.216 19.3528 24.928 18.2168 24.352C17.0968 23.776 16.2168 22.984 15.5768 21.976C14.9368 20.952 14.6168 19.784 14.6168 18.472C14.6168 17.16 14.9368 16 15.5768 14.992C16.2168 13.984 17.0968 13.2 18.2168 12.64C19.3528 12.064 20.6408 11.776 22.0808 11.776C23.5528 11.776 24.8248 12.088 25.8968 12.712C26.9688 13.336 27.7288 14.216 28.1768 15.352L24.6488 17.152C24.3448 16.544 23.9688 16.104 23.5208 15.832C23.0728 15.544 22.5848 15.4 22.0568 15.4C21.5288 15.4 21.0488 15.52 20.6168 15.76C20.1848 16 19.8408 16.352 19.5848 16.816C19.3448 17.264 19.2248 17.816 19.2248 18.472C19.2248 19.144 19.3448 19.712 19.5848 20.176C19.8408 20.64 20.1848 20.992 20.6168 21.232C21.0488 21.472 21.5288 21.592 22.0568 21.592C22.5848 21.592 23.0728 21.456 23.5208 21.184C23.9688 20.896 24.3448 20.448 24.6488 19.84L28.1768 21.64C27.7288 22.776 26.9688 23.656 25.8968 24.28C24.8248 24.904 23.5528 25.216 22.0808 25.216ZM35.3657 25.216C34.3097 25.216 33.3577 25.008 32.5097 24.592C31.6777 24.176 31.0217 23.528 30.5417 22.648C30.0777 21.752 29.8457 20.624 29.8457 19.264V11.992H34.4057V18.52C34.4057 19.528 34.5897 20.248 34.9577 20.68C35.3417 21.112 35.8777 21.328 36.5657 21.328C37.0137 21.328 37.4217 21.224 37.7897 21.016C38.1577 20.808 38.4537 20.48 38.6777 20.032C38.9017 19.568 39.0137 18.976 39.0137 18.256V11.992H43.5737V25H39.2297V21.328L40.0697 22.36C39.6217 23.32 38.9737 24.04 38.1257 24.52C37.2777 24.984 36.3577 25.216 35.3657 25.216ZM46.5109 25V11.992H50.8549V15.784L50.2069 14.704C50.5909 13.728 51.2149 13 52.0789 12.52C52.9429 12.024 53.9909 11.776 55.2229 11.776V15.88C55.0149 15.848 54.8309 15.832 54.6709 15.832C54.5269 15.816 54.3669 15.808 54.1909 15.808C53.2629 15.808 52.5109 16.064 51.9349 16.576C51.3589 17.072 51.0709 17.888 51.0709 19.024V25H46.5109ZM57.1046 25V11.992H61.4486V15.784L60.8006 14.704C61.1846 13.728 61.8086 13 62.6726 12.52C63.5366 12.024 64.5846 11.776 65.8166 11.776V15.88C65.6086 15.848 65.4246 15.832 65.2646 15.832C65.1206 15.816 64.9606 15.808 64.7846 15.808C63.8566 15.808 63.1046 16.064 62.5286 16.576C61.9526 17.072 61.6646 17.888 61.6646 19.024V25H57.1046ZM74.3972 25.216C72.8612 25.216 71.5172 24.928 70.3652 24.352C69.2292 23.76 68.3412 22.96 67.7012 21.952C67.0772 20.928 66.7652 19.768 66.7652 18.472C66.7652 17.176 67.0692 16.024 67.6772 15.016C68.3012 13.992 69.1572 13.2 70.2452 12.64C71.3332 12.064 72.5572 11.776 73.9172 11.776C75.1972 11.776 76.3652 12.04 77.4212 12.568C78.4772 13.08 79.3172 13.84 79.9412 14.848C80.5652 15.856 80.8772 17.08 80.8772 18.52C80.8772 18.68 80.8692 18.864 80.8532 19.072C80.8372 19.28 80.8212 19.472 80.8052 19.648H70.5092V17.248H78.3812L76.6532 17.92C76.6692 17.328 76.5572 16.816 76.3172 16.384C76.0932 15.952 75.7732 15.616 75.3572 15.376C74.9572 15.136 74.4852 15.016 73.9412 15.016C73.3972 15.016 72.9172 15.136 72.5012 15.376C72.1012 15.616 71.7892 15.96 71.5652 16.408C71.3412 16.84 71.2292 17.352 71.2292 17.944V18.64C71.2292 19.28 71.3572 19.832 71.6132 20.296C71.8852 20.76 72.2692 21.12 72.7652 21.376C73.2612 21.616 73.8532 21.736 74.5412 21.736C75.1812 21.736 75.7252 21.648 76.1732 21.472C76.6372 21.28 77.0932 20.992 77.5412 20.608L79.9412 23.104C79.3172 23.792 78.5492 24.32 77.6372 24.688C76.7252 25.04 75.6452 25.216 74.3972 25.216ZM91.4516 11.776C92.4596 11.776 93.3716 11.984 94.1876 12.4C95.0036 12.8 95.6436 13.424 96.1076 14.272C96.5876 15.12 96.8276 16.216 96.8276 17.56V25H92.2676V18.304C92.2676 17.376 92.0756 16.704 91.6916 16.288C91.3236 15.856 90.8036 15.64 90.1316 15.64C89.6516 15.64 89.2116 15.752 88.8116 15.976C88.4116 16.184 88.0996 16.512 87.8756 16.96C87.6516 17.408 87.5396 17.992 87.5396 18.712V25H82.9796V11.992H87.3236V15.688L86.4836 14.608C86.9796 13.664 87.6596 12.96 88.5236 12.496C89.3876 12.016 90.3636 11.776 91.4516 11.776ZM106.503 25.216C105.063 25.216 103.775 24.928 102.639 24.352C101.519 23.776 100.639 22.984 99.9986 21.976C99.3586 20.952 99.0386 19.784 99.0386 18.472C99.0386 17.16 99.3586 16 99.9986 14.992C100.639 13.984 101.519 13.2 102.639 12.64C103.775 12.064 105.063 11.776 106.503 11.776C107.975 11.776 109.247 12.088 110.319 12.712C111.391 13.336 112.151 14.216 112.599 15.352L109.071 17.152C108.767 16.544 108.391 16.104 107.943 15.832C107.495 15.544 107.007 15.4 106.479 15.4C105.951 15.4 105.471 15.52 105.039 15.76C104.607 16 104.263 16.352 104.007 16.816C103.767 17.264 103.647 17.816 103.647 18.472C103.647 19.144 103.767 19.712 104.007 20.176C104.263 20.64 104.607 20.992 105.039 21.232C105.471 21.472 105.951 21.592 106.479 21.592C107.007 21.592 107.495 21.456 107.943 21.184C108.391 20.896 108.767 20.448 109.071 19.84L112.599 21.64C112.151 22.776 111.391 23.656 110.319 24.28C109.247 24.904 107.975 25.216 106.503 25.216ZM114.269 25V11.992H118.829V25H114.269ZM116.549 10.552C115.717 10.552 115.045 10.32 114.533 9.856C114.021 9.392 113.765 8.816 113.765 8.128C113.765 7.44 114.021 6.864 114.533 6.4C115.045 5.936 115.717 5.704 116.549 5.704C117.381 5.704 118.053 5.928 118.565 6.376C119.077 6.808 119.333 7.368 119.333 8.056C119.333 8.776 119.077 9.376 118.565 9.856C118.069 10.32 117.397 10.552 116.549 10.552ZM128.608 25.216C127.072 25.216 125.728 24.928 124.576 24.352C123.44 23.76 122.552 22.96 121.912 21.952C121.288 20.928 120.976 19.768 120.976 18.472C120.976 17.176 121.28 16.024 121.888 15.016C122.512 13.992 123.368 13.2 124.456 12.64C125.544 12.064 126.768 11.776 128.128 11.776C129.408 11.776 130.576 12.04 131.632 12.568C132.688 13.08 133.528 13.84 134.152 14.848C134.776 15.856 135.088 17.08 135.088 18.52C135.088 18.68 135.08 18.864 135.064 19.072C135.048 19.28 135.032 19.472 135.016 19.648H124.72V17.248H132.592L130.864 17.92C130.88 17.328 130.768 16.816 130.528 16.384C130.304 15.952 129.984 15.616 129.568 15.376C129.168 15.136 128.696 15.016 128.152 15.016C127.608 15.016 127.128 15.136 126.712 15.376C126.312 15.616 126 15.96 125.776 16.408C125.552 16.84 125.44 17.352 125.44 17.944V18.64C125.44 19.28 125.568 19.832 125.824 20.296C126.096 20.76 126.48 21.12 126.976 21.376C127.472 21.616 128.064 21.736 128.752 21.736C129.392 21.736 129.936 21.648 130.384 21.472C130.848 21.28 131.304 20.992 131.752 20.608L134.152 23.104C133.528 23.792 132.76 24.32 131.848 24.688C130.936 25.04 129.856 25.216 128.608 25.216ZM141.919 25.216C140.815 25.216 139.735 25.088 138.679 24.832C137.639 24.576 136.799 24.256 136.159 23.872L137.527 20.752C138.135 21.12 138.847 21.416 139.663 21.64C140.479 21.848 141.279 21.952 142.063 21.952C142.831 21.952 143.359 21.872 143.647 21.712C143.951 21.552 144.103 21.336 144.103 21.064C144.103 20.808 143.959 20.624 143.671 20.512C143.399 20.384 143.031 20.288 142.567 20.224C142.119 20.16 141.623 20.088 141.079 20.008C140.535 19.928 139.983 19.824 139.423 19.696C138.879 19.552 138.375 19.344 137.911 19.072C137.463 18.784 137.103 18.4 136.831 17.92C136.559 17.44 136.423 16.832 136.423 16.096C136.423 15.264 136.663 14.528 137.143 13.888C137.639 13.232 138.359 12.72 139.303 12.352C140.247 11.968 141.399 11.776 142.759 11.776C143.671 11.776 144.591 11.872 145.519 12.064C146.463 12.24 147.255 12.512 147.895 12.88L146.527 15.976C145.887 15.608 145.247 15.36 144.607 15.232C143.967 15.088 143.359 15.016 142.783 15.016C142.015 15.016 141.471 15.104 141.151 15.28C140.847 15.456 140.695 15.672 140.695 15.928C140.695 16.184 140.831 16.384 141.103 16.528C141.375 16.656 141.735 16.76 142.183 16.84C142.647 16.904 143.151 16.976 143.695 17.056C144.239 17.12 144.783 17.224 145.327 17.368C145.887 17.512 146.391 17.728 146.839 18.016C147.303 18.288 147.671 18.664 147.943 19.144C148.215 19.608 148.351 20.208 148.351 20.944C148.351 21.744 148.103 22.464 147.607 23.104C147.127 23.744 146.407 24.256 145.447 24.64C144.503 25.024 143.327 25.216 141.919 25.216Z" fill="#2140D4"/>
</svg>
