<svg width="49" height="48" viewBox="0 0 49 48" fill="none" xmlns="http://www.w3.org/2000/svg">
<circle cx="24.5" cy="24" r="23" stroke="#08C056" stroke-opacity="0.24" stroke-width="2"/>
<path d="M34.5 16.009C33.6294 16.6113 32.6656 17.0719 31.6455 17.3732C31.0979 16.7558 30.3703 16.3181 29.5609 16.1195C28.7516 15.9208 27.8995 15.9708 27.1201 16.2626C26.3406 16.5544 25.6713 17.074 25.2027 17.7511C24.7341 18.4281 24.4888 19.23 24.5 20.0483V20.9399C22.9024 20.9806 21.3193 20.633 19.8918 19.9283C18.4643 19.2235 17.2367 18.1836 16.3182 16.9008C16.3182 16.9008 12.6818 24.9258 20.8636 28.4925C18.9914 29.739 16.7611 30.364 14.5 30.2758C22.6818 34.7342 32.6818 30.2758 32.6818 20.0215C32.681 19.7731 32.6566 19.5254 32.6091 19.2814C33.5369 18.3839 34.1917 17.2508 34.5 16.009Z" stroke="#08C056" stroke-width="2" stroke-linecap="round" stroke-linejoin="round"/>
</svg>
