<svg width="77" height="20" viewBox="0 0 77 20" fill="none" xmlns="http://www.w3.org/2000/svg">
<path d="M2.808 18.904L9.36 3.856L10.632 5.872H2.112L4.056 3.688V8.464H0V2.104H13.92V5.08L7.992 18.904H2.808Z" fill="#08C056"/>
<path d="M16.5338 18.904V6.04C16.5338 4.472 16.9978 3.224 17.9258 2.296C18.8698 1.352 20.2138 0.879999 21.9578 0.879999C22.5177 0.879999 23.0697 0.935999 23.6138 1.048C24.1578 1.16 24.6138 1.328 24.9818 1.552L23.8538 4.768C23.6618 4.656 23.4458 4.568 23.2058 4.504C22.9658 4.424 22.7257 4.384 22.4858 4.384C22.0058 4.384 21.6297 4.528 21.3577 4.816C21.1017 5.088 20.9738 5.512 20.9738 6.088V7.024L21.0938 8.92V18.904H16.5338ZM14.6377 9.784V6.376H24.0697V9.784H14.6377ZM26.1578 18.904V1.096H30.7178V18.904H26.1578Z" fill="#2140D4"/>
<path d="M40.2056 19.12C38.7816 19.12 37.5176 18.832 36.4136 18.256C35.3096 17.68 34.4376 16.888 33.7976 15.88C33.1736 14.856 32.8616 13.688 32.8616 12.376C32.8616 11.064 33.1736 9.904 33.7976 8.896C34.4376 7.888 35.3096 7.104 36.4136 6.544C37.5176 5.968 38.7816 5.68 40.2056 5.68C41.6296 5.68 42.8936 5.968 43.9976 6.544C45.1176 7.104 45.9896 7.888 46.6136 8.896C47.2376 9.904 47.5496 11.064 47.5496 12.376C47.5496 13.688 47.2376 14.856 46.6136 15.88C45.9896 16.888 45.1176 17.68 43.9976 18.256C42.8936 18.832 41.6296 19.12 40.2056 19.12ZM40.2056 15.496C40.7336 15.496 41.1976 15.376 41.5976 15.136C42.0136 14.896 42.3416 14.544 42.5816 14.08C42.8216 13.6 42.9416 13.032 42.9416 12.376C42.9416 11.72 42.8216 11.168 42.5816 10.72C42.3416 10.256 42.0136 9.904 41.5976 9.664C41.1976 9.424 40.7336 9.304 40.2056 9.304C39.6936 9.304 39.2296 9.424 38.8136 9.664C38.4136 9.904 38.0856 10.256 37.8296 10.72C37.5896 11.168 37.4696 11.72 37.4696 12.376C37.4696 13.032 37.5896 13.6 37.8296 14.08C38.0856 14.544 38.4136 14.896 38.8136 15.136C39.2296 15.376 39.6936 15.496 40.2056 15.496Z" fill="#2140D4"/>
<path d="M52.4064 18.904L47.7744 5.896H52.0944L55.7664 16.768H53.7024L57.5184 5.896H61.4064L65.0784 16.768H63.0624L66.8544 5.896H70.8624L66.2304 18.904H61.8144L58.6944 9.904H60.0384L56.8224 18.904H52.4064Z" fill="#2140D4"/>
<path d="M73.4258 19.12C72.6578 19.12 72.0098 18.864 71.4818 18.352C70.9538 17.84 70.6898 17.192 70.6898 16.408C70.6898 15.592 70.9538 14.944 71.4818 14.464C72.0098 13.968 72.6578 13.72 73.4258 13.72C74.1937 13.72 74.8418 13.968 75.3698 14.464C75.8978 14.944 76.1618 15.592 76.1618 16.408C76.1618 17.192 75.8978 17.84 75.3698 18.352C74.8418 18.864 74.1937 19.12 73.4258 19.12Z" fill="#08C056"/>
</svg>
